#!OML:ASF E:/inclinewalkrobotboard/Project1/Captureday1/Session1/subject1.ASF
:FULLY-SPECIFIED
:DEGREES
1
root 0 0 0 1.909245424369919 -10.596291265446789 0.8221364802407809
lowerback 0.1536524462181037 -1.7739720203410516 -2.5432542721072777
upperback -0.18378064722602627 -2.309489777833938 1.862155886662448
thorax -0.1328516493609302 -1.1733542270256527 3.289794748736484
lowerneck -25.026973244553034 -1.5177288708040924 -7.618215606359753
upperneck 26.622696265165885 0.44098236327127116 1.841982407905065
head 13.110861818936874 -0.4354264683115151 2.18138567814317
rclavicle -2.0527068065405293E-15 5.681506129611635E-16
rhumerus -34.083198664792825 -5.537782279066597 -78.87955703077688
rradius 28.976995560576647
rwrist 20.831267832764212
rhand -17.22519103935185 8.690007996990541
rfingers 7.125019999999959
rthumb 9.017601061935661 -21.0737448206015
lclavicle -4.846782074991976E-15 2.8427864025580582E-15
lhumerus -23.50698194653532 -5.958928518273194 92.19124665033308
lradius 63.50372600222187
lwrist 3.669710343961545
lhand -27.523090381324323 22.11343114022725
lfingers 7.125020000000003
lthumb -0.9447628652248952 52.1835453446699
rfemur -16.60140137569603 4.574764807247389 29.121459219372294
rtibia 44.53665557049773
rfoot 0.5029917208378905 -4.266262329959677
rtoes 17.121131875353512
lfemur -9.067850181646559 0.3925470749472515 -17.300879817211918
ltibia 53.197561064847314
lfoot 7.808444878960147 -11.877574293146372
ltoes -3.6845001121696264
2
root 0 0 0 1.8528516194753273 -10.508225991179888 0.8142871879591472
lowerback 0.15910785300641295 -1.715963611674867 -2.5588153991008307
upperback -0.2810436705217651 -2.231853075977357 1.8512068623223301
thorax -0.2529476939319638 -1.1290493230926064 3.2858262642067366
lowerneck -24.884701797024782 -1.5395027540987414 -7.584951188166098
upperneck 26.3818313864552 0.37298637185871986 1.9074739858333793
head 13.011192836945664 -0.45465281815337566 2.187136562488112
rclavicle -8.639601657382405E-16 6.428680223163098E-16
rhumerus -33.90224661976171 -6.203849118881213 -79.379263373602
rradius 29.26793504628476
rwrist 20.861279637730778
rhand -17.071621856479773 8.586529931158335
rfingers 7.125019999999962
rthumb 9.168729770936562 -21.16076837159722
lclavicle -4.300039782565854E-15 3.0442181722130924E-15
lhumerus -23.505463469206 -5.201732070636636 92.49472064476466
lradius 63.03480911851906
lwrist 3.191726785043202
lhand -27.823252195258384 21.60815130969492
lfingers 7.125020000000006
lthumb -1.23808154576228 51.653107290222614
rfemur -15.17219937463479 4.6522671981532016 30.36684366000523
rtibia 44.454646538326
rfoot -2.516178761381731 -5.2260869554134715
rtoes 16.422272678262445
lfemur -15.867606286574496 2.1713236727946796 -15.797780846027997
ltibia 56.92094453071388
lfoot 2.1635562123930665 -8.429967970523258
ltoes -4.303720021484444
3
root 0 0 0 1.841190729188022 -10.451368469270477 0.8137159323004367
lowerback 0.14903539874060412 -1.6841277490950746 -2.57828537679957
upperback -0.32119471428902124 -2.1912872914952377 1.8412321881775933
thorax -0.2971319235333434 -1.105865026559684 3.284251739657229
lowerneck -24.80521587264555 -1.5654106802370276 -7.592230088626543
upperneck 26.25490751149067 0.3071704472253003 1.9863564432644008
head 12.955583545650766 -0.4724188940465699 2.2052349762816346
rclavicle 8.767483012475724E-16 9.716635112133476E-16
rhumerus -33.51360833282096 -6.421232602463136 -79.95982564960578
rradius 29.66305232920293
rwrist 20.636590429864647
rhand -17.039692909105156 8.609260120861565
rfingers 7.1250199999999575
rthumb 9.200312801128861 -21.127731123317123
lclavicle -5.051586092812204E-15 3.586052767261203E-15
lhumerus -23.334825447260023 -4.887843674713905 92.56625414630568
lradius 62.862686749737875
lwrist 2.9865187044654986
lhand -27.983313724190282 21.407224437433417
lfingers 7.125020000000008
lthumb -1.3935227753594388 51.43974774167508
rfemur -12.28013141685476 5.6525526542688915 33.151815216776576
rtibia 38.66301999706965
rfoot -8.770876207484871 -7.06846454379582
rtoes 14.9686623214833
lfemur -20.172105135549437 3.0139329299320625 -14.08942036751708
ltibia 58.182117500520874
lfoot -0.988979988391117 -5.899382881015297
ltoes -6.123606339461772
4
root 0 0 0 1.837305691768488 -10.362140573629004 0.8277888265932033
lowerback 0.16322969902437467 -1.6475469127970295 -2.602474738760219
upperback -0.35838108300239185 -2.144858373417347 1.859641534161925
thorax -0.3505842068554754 -1.0801746164317292 3.314083864588996
lowerneck -24.900330109449865 -1.6219253237209683 -7.578427367259913
upperneck 25.669190075187505 0.19824131811427492 2.136878111627488
head 12.765541414808201 -0.489305870189653 2.2347687405971146
rclavicle 2.9128453347379696E-15 9.46839044636328E-16
rhumerus -32.966545139951336 -6.29303334555765 -80.61301923881561
rradius 30.14052669827634
rwrist 20.223364746353006
rhand -17.111906054159785 8.741167541994148
rfingers 7.125019999999948
rthumb 9.128506193230383 -20.992852213742264
lclavicle -5.187114056335269E-15 3.655201679153189E-15
lhumerus -23.319784511600705 -4.841683410043183 92.6067461671692
lradius 62.768920929028674
lwrist 2.9219434321348112
lhand -28.035788955622 21.283989018124327
lfingers 7.125020000000007
lthumb -1.4465684690576408 51.31266521461767
rfemur -5.538557623969756 7.265505475913667 36.9696509586283
rtibia 28.810407364834887
rfoot -18.462593358414306 -9.196371302538347
rtoes 11.633215335325783
lfemur -23.033611956529764 3.070115059339881 -13.124252563405276
ltibia 57.61554906272136
lfoot -2.7411753303704014 -4.337530149420571
ltoes -6.726615161307828
